%TF.GenerationSoftware,KiCad,Pcbnew,9.0.2*%
%TF.CreationDate,2025-06-02T01:08:02+08:00*%
%TF.ProjectId,niigo,6e696967-6f2e-46b6-9963-61645f706362,rev?*%
%TF.SameCoordinates,Original*%
%TF.FileFunction,Profile,NP*%
%FSLAX46Y46*%
G04 Gerber Fmt 4.6, Leading zero omitted, Abs format (unit mm)*
G04 Created by KiCad (PCBNEW 9.0.2) date 2025-06-02 01:08:02*
%MOMM*%
%LPD*%
G01*
G04 APERTURE LIST*
%TA.AperFunction,Profile*%
%ADD10C,0.000000*%
%TD*%
G04 APERTURE END LIST*
D10*
X231514333Y-37457279D02*
X232278511Y-37763391D01*
X233087347Y-38219264D01*
X233936112Y-38814543D01*
X234820081Y-39538870D01*
X235734526Y-40381887D01*
X237635940Y-42382567D01*
X239602540Y-44733727D01*
X241596514Y-47352509D01*
X243580049Y-50156058D01*
X245515330Y-53061516D01*
X247364546Y-55986028D01*
X249089882Y-58846737D01*
X250653526Y-61560787D01*
X252017664Y-64045320D01*
X253144483Y-66217481D01*
X253996170Y-67994414D01*
X254534912Y-69293261D01*
X254722896Y-70031166D01*
X254646477Y-70471360D01*
X254423423Y-71024705D01*
X254063043Y-71682822D01*
X253574643Y-72437335D01*
X252251010Y-74202038D01*
X250526980Y-76251798D01*
X248477009Y-78519595D01*
X246175552Y-80938413D01*
X243697064Y-83441231D01*
X241116001Y-85961034D01*
X235943972Y-90783519D01*
X233501917Y-92952165D01*
X231255109Y-94869723D01*
X229278004Y-96469175D01*
X227645056Y-97683503D01*
X226430722Y-98445688D01*
X226003802Y-98636285D01*
X225709457Y-98688713D01*
X225428346Y-98594315D01*
X225040014Y-98356078D01*
X223972126Y-97484471D01*
X222566673Y-96146662D01*
X220884533Y-94415419D01*
X216933705Y-90063704D01*
X212606673Y-85011475D01*
X208390467Y-79840877D01*
X204772117Y-75134059D01*
X203339334Y-73136488D01*
X202238652Y-71473167D01*
X201530948Y-70216865D01*
X201343487Y-69764086D01*
X201277101Y-69440350D01*
X201345268Y-69106521D01*
X201550903Y-68624448D01*
X202341640Y-67257576D01*
X203583436Y-65423737D01*
X205210414Y-63206934D01*
X207156700Y-60691170D01*
X209356416Y-57960449D01*
X214252637Y-52190147D01*
X216817389Y-49318572D01*
X219372067Y-46568054D01*
X221850797Y-44022593D01*
X224187700Y-41766195D01*
X226316902Y-39882862D01*
X228172526Y-38456598D01*
X228977160Y-37941117D01*
X229688696Y-37571405D01*
X230298900Y-37357961D01*
X230799537Y-37311287D01*
X231514333Y-37457279D01*
M02*
