%TF.GenerationSoftware,KiCad,Pcbnew,9.0.2*%
%TF.CreationDate,2025-06-02T01:08:01+08:00*%
%TF.ProjectId,niigo,6e696967-6f2e-46b6-9963-61645f706362,rev?*%
%TF.SameCoordinates,Original*%
%TF.FileFunction,Copper,L1,Top*%
%TF.FilePolarity,Positive*%
%FSLAX46Y46*%
G04 Gerber Fmt 4.6, Leading zero omitted, Abs format (unit mm)*
G04 Created by KiCad (PCBNEW 9.0.2) date 2025-06-02 01:08:01*
%MOMM*%
%LPD*%
G01*
G04 APERTURE LIST*
%TA.AperFunction,ComponentPad*%
%ADD10C,1.600000*%
%TD*%
%TA.AperFunction,ComponentPad*%
%ADD11R,1.050000X1.500000*%
%TD*%
%TA.AperFunction,ComponentPad*%
%ADD12O,1.050000X1.500000*%
%TD*%
%TA.AperFunction,ComponentPad*%
%ADD13C,2.000000*%
%TD*%
%TA.AperFunction,ComponentPad*%
%ADD14C,1.500000*%
%TD*%
%TA.AperFunction,ComponentPad*%
%ADD15R,0.850000X0.850000*%
%TD*%
%TA.AperFunction,ComponentPad*%
%ADD16C,0.850000*%
%TD*%
%TA.AperFunction,ComponentPad*%
%ADD17R,1.800000X1.800000*%
%TD*%
%TA.AperFunction,ComponentPad*%
%ADD18C,1.800000*%
%TD*%
%TA.AperFunction,ViaPad*%
%ADD19C,5.500000*%
%TD*%
%TA.AperFunction,Conductor*%
%ADD20C,0.200000*%
%TD*%
G04 APERTURE END LIST*
D10*
%TO.P,R1,2*%
%TO.N,Net-(Q2-B)*%
X244880000Y-70500000D03*
%TO.P,R1,1*%
%TO.N,Net-(R1-Pad1)*%
X252500000Y-70500000D03*
%TD*%
D11*
%TO.P,Q2,1,C*%
%TO.N,Net-(M1-+)*%
X240270000Y-70360000D03*
D12*
%TO.P,Q2,2,B*%
%TO.N,Net-(Q2-B)*%
X239000000Y-70360000D03*
%TO.P,Q2,3,E*%
%TO.N,Net-(Q1-E)*%
X237730000Y-70360000D03*
%TD*%
D10*
%TO.P,R4,2*%
%TO.N,Net-(BT1-+)*%
X206000000Y-69500000D03*
%TO.P,R4,1*%
%TO.N,Net-(M1--)*%
X213620000Y-69500000D03*
%TD*%
D13*
%TO.P,SW1,1,1*%
%TO.N,Net-(Q1-E)*%
X244000000Y-58000000D03*
X237500000Y-58000000D03*
%TO.P,SW1,2,2*%
%TO.N,Net-(BT1--)*%
X244000000Y-62500000D03*
X237500000Y-62500000D03*
%TD*%
D10*
%TO.P,R5,1*%
%TO.N,Net-(R1-Pad1)*%
X231810000Y-61500000D03*
%TO.P,R5,2*%
%TO.N,Net-(Q1-B)*%
X224190000Y-61500000D03*
%TD*%
%TO.P,R3,1*%
%TO.N,Net-(D1-A)*%
X243120000Y-54500000D03*
%TO.P,R3,2*%
%TO.N,Net-(BT1-+)*%
X235500000Y-54500000D03*
%TD*%
D14*
%TO.P,R2,1*%
%TO.N,Net-(BT1-+)*%
X225100000Y-69000000D03*
%TO.P,R2,2*%
%TO.N,Net-(R1-Pad1)*%
X228500000Y-69000000D03*
%TD*%
D11*
%TO.P,Q1,1,C*%
%TO.N,Net-(D1-K)*%
X215770000Y-58860000D03*
D12*
%TO.P,Q1,2,B*%
%TO.N,Net-(Q1-B)*%
X214500000Y-58860000D03*
%TO.P,Q1,3,E*%
%TO.N,Net-(Q1-E)*%
X213230000Y-58860000D03*
%TD*%
D15*
%TO.P,M1,1,+*%
%TO.N,Net-(M1-+)*%
X222800000Y-65500000D03*
D16*
%TO.P,M1,2,-*%
%TO.N,Net-(M1--)*%
X221800000Y-65500000D03*
%TD*%
D17*
%TO.P,D1,1,K*%
%TO.N,Net-(D1-K)*%
X227960000Y-50500000D03*
D18*
%TO.P,D1,2,A*%
%TO.N,Net-(D1-A)*%
X230500000Y-50500000D03*
%TD*%
D19*
%TO.N,*%
X230750000Y-43000000D03*
%TD*%
D20*
%TO.N,Net-(BT1--)*%
X244000000Y-62500000D02*
X237500000Y-62500000D01*
%TO.N,Net-(Q2-B)*%
X239000000Y-70860000D02*
X239000000Y-70360000D01*
X228682900Y-79182900D02*
X230677100Y-79182900D01*
X230677100Y-79182900D02*
X239000000Y-70860000D01*
%TO.N,Net-(Q1-E)*%
X232400529Y-46901000D02*
X222534234Y-46901000D01*
X237701000Y-51701000D02*
X230002529Y-51701000D01*
X244000000Y-58000000D02*
X237701000Y-51701000D01*
X230002529Y-51701000D02*
X229299000Y-50997471D01*
X229299000Y-50997471D02*
X229299000Y-50002529D01*
X229299000Y-50002529D02*
X232400529Y-46901000D01*
%TO.N,Net-(D1-A)*%
X243120000Y-54500000D02*
X239120000Y-50500000D01*
X239120000Y-50500000D02*
X230500000Y-50500000D01*
%TO.N,Net-(Q1-E)*%
X213230000Y-56205234D02*
X222534234Y-46901000D01*
X213230000Y-58860000D02*
X213230000Y-56205234D01*
X244137892Y-56862108D02*
X243000000Y-58000000D01*
X243000000Y-58000000D02*
X237500000Y-58000000D01*
%TO.N,Net-(M1-+)*%
X222800000Y-65500000D02*
X222800000Y-64875000D01*
X222800000Y-64875000D02*
X219257950Y-61332950D01*
X245301000Y-67773100D02*
X230673100Y-82401000D01*
X226833900Y-81599000D02*
X229256000Y-81599000D01*
X219257950Y-61332950D02*
X214309810Y-61332950D01*
X229256000Y-81599000D02*
X240270000Y-70585000D01*
X212404000Y-56464134D02*
X222368134Y-46500000D01*
X242088609Y-49088609D02*
X243084530Y-50496255D01*
X240270000Y-70585000D02*
X240270000Y-70360000D01*
X214309810Y-61332950D02*
X212404000Y-59427140D01*
X230673100Y-82401000D02*
X226833900Y-82401000D01*
X222368134Y-46500000D02*
X239500000Y-46500000D01*
X212404000Y-59427140D02*
X212404000Y-56464134D01*
X239500000Y-46500000D02*
X242088609Y-49088609D01*
X243084530Y-50496255D02*
X244538892Y-52679703D01*
X244538892Y-52679703D02*
X244538892Y-56699000D01*
X244538892Y-56699000D02*
X245301000Y-57461108D01*
X245301000Y-57461108D02*
X245301000Y-67773100D01*
X226833900Y-82401000D02*
X226599000Y-82166100D01*
X226599000Y-82166100D02*
X226599000Y-81833900D01*
X226599000Y-81833900D02*
X226833900Y-81599000D01*
%TO.N,Net-(Q1-E)*%
X244000000Y-58000000D02*
X237500000Y-58000000D01*
%TO.N,Net-(R1-Pad1)*%
X252500000Y-70500000D02*
X247932900Y-70500000D01*
X235229900Y-83203000D02*
X226135900Y-83203000D01*
X247932900Y-70500000D02*
X235229900Y-83203000D01*
X226135900Y-83203000D02*
X225797000Y-82864100D01*
X225797000Y-82864100D02*
X225797000Y-71703000D01*
X225797000Y-71703000D02*
X228500000Y-69000000D01*
%TO.N,Net-(Q2-B)*%
X244880000Y-70500000D02*
X232578000Y-82802000D01*
X232578000Y-82802000D02*
X226302000Y-82802000D01*
X226302000Y-82802000D02*
X226198000Y-82698000D01*
X226198000Y-82698000D02*
X226198000Y-81667800D01*
X226198000Y-81667800D02*
X228682900Y-79182900D01*
%TO.N,Net-(Q1-B)*%
X224190000Y-61500000D02*
X225402050Y-61500000D01*
X225402050Y-61500000D02*
X225692000Y-61210050D01*
X225692000Y-61210050D02*
X225692000Y-60877850D01*
X225692000Y-60877850D02*
X224812150Y-59998000D01*
X214500000Y-59360000D02*
X214500000Y-58860000D01*
X224812150Y-59998000D02*
X215138000Y-59998000D01*
X215138000Y-59998000D02*
X214500000Y-59360000D01*
%TO.N,Net-(BT1-+)*%
X235500000Y-54500000D02*
X235500000Y-56252950D01*
X235500000Y-56252950D02*
X225100000Y-66652950D01*
X225100000Y-66652950D02*
X225100000Y-69000000D01*
%TO.N,Net-(D1-K)*%
X215770000Y-58860000D02*
X219600000Y-58860000D01*
X219600000Y-58860000D02*
X227960000Y-50500000D01*
%TO.N,Net-(BT1-+)*%
X223098000Y-71002000D02*
X207502000Y-71002000D01*
X207502000Y-71002000D02*
X206000000Y-69500000D01*
%TO.N,Net-(BT1--)*%
X230507000Y-82000000D02*
X227000000Y-82000000D01*
X230507000Y-82000000D02*
X241096000Y-71411000D01*
X241096000Y-71411000D02*
X241096000Y-66096000D01*
X241096000Y-66096000D02*
X237500000Y-62500000D01*
%TO.N,Net-(Q1-E)*%
X237730000Y-70360000D02*
X236199000Y-68829000D01*
X236199000Y-68829000D02*
X236199000Y-59301000D01*
X236199000Y-59301000D02*
X237500000Y-58000000D01*
%TO.N,Net-(BT1--)*%
X237500000Y-60322950D02*
X237500000Y-62500000D01*
%TO.N,Net-(BT1-+)*%
X235000000Y-84000000D02*
X219000000Y-84000000D01*
X219000000Y-84000000D02*
X206000000Y-71000000D01*
X237500000Y-81500000D02*
X235000000Y-84000000D01*
X206000000Y-71000000D02*
X206000000Y-69500000D01*
%TO.N,Net-(R1-Pad1)*%
X231810000Y-61500000D02*
X231810000Y-65690000D01*
X231810000Y-65690000D02*
X228500000Y-69000000D01*
%TO.N,Net-(M1--)*%
X213620000Y-69500000D02*
X217800000Y-69500000D01*
X217800000Y-69500000D02*
X221800000Y-65500000D01*
%TO.N,Net-(BT1-+)*%
X225100000Y-69000000D02*
X223098000Y-71002000D01*
%TD*%
M02*
